#!OML:ASF X:\für Bonn\!DataBase\2005_08_10_Bjorn_Final\c3d\bjorn.ASF
:FULLY-SPECIFIED
:DEGREES
280
root -0.420743 17.3423 5.39205 -186.884 42.9566 174.59
lowerback -2.73921 7.29949 -2.02379
upperback 3.35369 10.5442 -5.73455
thorax 5.77238 5.4443 -3.98354
lowerneck 3.93733 2.16891 9.59262
upperneck 6.59822 3.63716 -4.13591
head 1.70415 2.10713 -3.01344
rclavicle 7.0171e-014 -6.36111e-015
rhumerus 80.2618 10.3006 -72.1638
rradius 48.8509
rwrist 21.6255
rhand -6.98417 -4.28985
rfingers 7.12502
rthumb 18.886 -33.393
lclavicle 7.0171e-014 -6.36111e-015
lhumerus 50.2127 -15.0406 87.1787
lradius 67.7367
lwrist 61.9148
lhand -61.4711 16.4829
lfingers 7.12502
lthumb -33.5512 43.3652
rfemur 543.584 -186.115 -541.535
rtibia 39.8567
rfoot -21.8877 30.3158
rtoes -17.8906
lfemur 333.503 -3.4408 345.997
ltibia 59.6805
lfoot -21.9233 1.68736
ltoes -28.5015
281
root -0.43983 17.1411 5.342 -187.506 42.4659 173.972
lowerback -2.50136 7.23369 -2.19893
upperback 3.68306 10.5365 -5.94323
thorax 6.001 5.46074 -4.11511
lowerneck 3.93723 2.14591 9.62747
upperneck 6.32343 3.58264 -3.97378
head 1.60666 2.07131 -2.96515
rclavicle -5.71506e-014 -1.11319e-014
rhumerus 80.5157 9.91179 -71.652
rradius 48.3864
rwrist 20.9313
rhand -3.16947 -5.08537
rfingers 7.12502
rthumb 22.5513 -33.7883
lclavicle -5.71506e-014 -1.11319e-014
lhumerus 50.3172 -15.3402 86.9817
lradius 67.412
lwrist 62.5174
lhand -61.4027 16.5694
lfingers 7.12502
lthumb -33.4861 43.4658
rfemur 543.232 -186.243 -542.16
rtibia 42.0731
rfoot -24.5631 29.9967
rtoes -18.7346
lfemur 332.463 -3.71135 345.183
ltibia 62.1309
lfoot -23.4923 2.42035
ltoes -29.3884
282
root -0.456529 16.9642 5.2909 -187.984 42.0071 173.54
lowerback -2.30833 7.16829 -2.2723
upperback 4.01703 10.5209 -6.0969
thorax 6.26751 5.47393 -4.23868
lowerneck 3.93804 2.13042 9.64806
upperneck 6.09649 3.54295 -3.82095
head 1.52603 2.04448 -2.9173
rclavicle 1.14898e-013 -2.54444e-014
rhumerus 80.7245 9.58091 -71.0594
rradius 47.8995
rwrist 20.2242
rhand -0.191261 -5.64497
rfingers 7.12502
rthumb 25.4072 -33.9719
lclavicle 1.14898e-013 -2.54444e-014
lhumerus 50.3004 -15.6061 86.8199
lradius 67.2011
lwrist 63.2244
lhand -61.309 16.1127
lfingers 7.12502
lthumb -33.3971 43.0282
rfemur 542.728 -186.436 -542.615
rtibia 44.4599
rfoot -27.0444 29.1947
rtoes -21.0457
lfemur 331.543 -3.94418 344.505
ltibia 64.3407
lfoot -24.7204 3.36279
ltoes -30.8235
283
root -0.471977 16.8033 5.24061 -188.392 41.5695 173.175
lowerback -2.15399 7.11356 -2.28252
upperback 4.34792 10.5249 -6.26916
thorax 6.57107 5.50194 -4.40867
lowerneck 3.94883 2.10962 9.71806
upperneck 5.87604 3.50035 -3.63839
head 1.44636 2.01841 -2.86883
rclavicle -1.98785e-016 4.29375e-014
rhumerus 80.8498 9.27243 -70.5748
rradius 47.3992
rwrist 19.6365
rhand 2.03157 -5.91025
rfingers 7.12502
rthumb 27.5348 -33.9166
lclavicle -1.98785e-016 4.29375e-014
lhumerus 50.2006 -15.8955 86.6165
lradius 67.0666
lwrist 63.9413
lhand -61.149 15.774
lfingers 7.12502
lthumb -33.245 42.7222
rfemur 542.049 -186.65 -543.007
rtibia 47.0066
rfoot -29.601 27.8135
rtoes -25.3239
lfemur 330.729 -4.16863 343.882
ltibia 66.3239
lfoot -25.6537 4.29625
ltoes -32.1692
284
root -0.484493 16.6732 5.18892 -188.696 41.1702 172.983
lowerback -2.01939 7.04852 -2.18993
upperback 4.68937 10.5049 -6.38516
thorax 6.90345 5.51988 -4.57469
lowerneck 3.95157 2.11506 9.79736
upperneck 5.69514 3.49717 -3.50436
head 1.38553 2.01295 -2.83844
rclavicle 2.98177e-015 -1.00187e-013
rhumerus 80.9082 9.07785 -70.0017
rradius 46.947
rwrist 19.0676
rhand 3.55127 -6.13726
rfingers 7.12502
rthumb 28.9872 -33.9032
lclavicle 2.98177e-015 -1.00187e-013
lhumerus 49.9657 -16.1043 86.4392
lradius 67.0961
lwrist 64.7129
lhand -61.1711 15.8409
lfingers 7.12502
lthumb -33.266 42.7846
rfemur 541.339 -186.883 -543.222
rtibia 49.5183
rfoot -32.2143 25.8029
rtoes -30.998
lfemur 330.144 -4.33884 343.403
ltibia 67.9882
lfoot -26.3317 5.19206
ltoes -33.8017
